<?xml version="1.0" encoding="UTF-8"?>
<svg width="1024" height="1024" viewBox="0 0 1024 1024" xmlns="http://www.w3.org/2000/svg">
  <!-- Background with rounded corners -->
  <defs>
    <linearGradient id="bgGradient" x1="0%" y1="0%" x2="100%" y2="100%">
      <stop offset="0%" style="stop-color:#4A90E2;stop-opacity:1" />
      <stop offset="100%" style="stop-color:#357ABD;stop-opacity:1" />
    </linearGradient>
    <linearGradient id="iconGradient" x1="0%" y1="0%" x2="100%" y2="100%">
      <stop offset="0%" style="stop-color:#FFFFFF;stop-opacity:0.95" />
      <stop offset="100%" style="stop-color:#F8F9FA;stop-opacity:0.9" />
    </linearGradient>
    <filter id="shadow" x="-50%" y="-50%" width="200%" height="200%">
      <feDropShadow dx="0" dy="8" stdDeviation="16" flood-color="#000000" flood-opacity="0.15"/>
    </filter>
  </defs>
  
  <!-- Main background rounded rectangle -->
  <rect x="0" y="0" width="1024" height="1024" rx="180" ry="180" fill="url(#bgGradient)"/>
  
  <!-- Speech bubble main shape -->
  <g transform="translate(512, 400)">
    <!-- Main bubble -->
    <ellipse cx="0" cy="0" rx="280" ry="200" fill="url(#iconGradient)" filter="url(#shadow)"/>
    
    <!-- Bubble tail -->
    <path d="M -180 120 L -220 180 L -140 150 Z" fill="url(#iconGradient)"/>
  </g>
  
  <!-- Discussion dots inside bubble -->
  <g transform="translate(512, 380)">
    <!-- Three dots representing conversation -->
    <circle cx="-60" cy="0" r="24" fill="#4A90E2" opacity="0.8"/>
    <circle cx="0" cy="0" r="24" fill="#4A90E2" opacity="0.9"/>
    <circle cx="60" cy="0" r="24" fill="#4A90E2" opacity="0.7"/>
  </g>
  
  <!-- GitHub-style octocat silhouette (simplified) -->
  <g transform="translate(512, 600)">
    <!-- Simple cat-like shape representing GitHub -->
    <circle cx="0" cy="0" r="40" fill="#FFFFFF" opacity="0.9"/>
    <!-- Cat ears -->
    <polygon points="-25,-30 -15,-50 -35,-35" fill="#FFFFFF" opacity="0.9"/>
    <polygon points="25,-30 35,-35 15,-50" fill="#FFFFFF" opacity="0.9"/>
    <!-- Simple face -->
    <circle cx="-12" cy="-8" r="4" fill="#4A90E2"/>
    <circle cx="12" cy="-8" r="4" fill="#4A90E2"/>
    <path d="M -8 8 Q 0 12 8 8" stroke="#4A90E2" stroke-width="3" fill="none"/>
  </g>
  
  <!-- Menu bar indicator -->
  <g transform="translate(512, 140)">
    <!-- Small menu bar representation -->
    <rect x="-100" y="-8" width="200" height="16" rx="8" fill="#FFFFFF" opacity="0.8"/>
    <circle cx="0" cy="0" r="6" fill="#4A90E2" opacity="0.9"/>
  </g>
  
  <!-- Subtle highlight -->
  <ellipse cx="400" cy="300" rx="120" ry="80" fill="#FFFFFF" opacity="0.15"/>
</svg>